<svg id="Layer_1" data-name="Layer 1" xmlns="http://www.w3.org/2000/svg" viewBox="0 0 133.32 133.59"><defs><style>.cls-1{fill:#12105B;}</style></defs><title>combined-banner.r3Logo2col</title><path class="cls-1" d="M25.33,18.18a7.68,7.68,0,0,1,3.91,6.77A6.13,6.13,0,0,1,23,31.27c-3.81,0-6-2.42-6-5.88a7,7,0,0,1,5.34-6.51,4.24,4.24,0,0,0-2.61-.76c-6.2,0-7.56,8.52-7.56,15,0,9.18,4.32,11.57,8.14,11.57,1.78,0,5-.38,7.88-4.35l1.11.41C27.68,46,23.45,51.83,15.7,51.83,7,51.83,0,47.19,0,34.07,0,21.55,7.31,16.21,16.75,16.21A17.39,17.39,0,0,1,25.33,18.18Z"/><path class="cls-1" d="M58.65,40.36l1.11.41C58.11,46,53.88,51.83,46.16,51.83c-8.36,0-15.06-4.64-15.06-17.76,0-12.52,7.31-17.86,16.75-17.86,7.59,0,12.3,4.1,12.3,14.59H43.33c-.06.76-.06,1.56-.06,2.35,0,9.18,4,11.57,7.5,11.57C52.51,44.71,55.79,44.33,58.65,40.36ZM43.11,29.55h7.53c.06-6.36-.86-11.82-3.27-11.82S43.55,20.94,43.11,29.55Z"/><path class="cls-1" d="M77.06,44.87c0,3.62,1,4.67,3.65,4.67v1.37c-1.75-.06-5.59-.25-9.25-.25s-7.88.19-9.76.25V49.54c2.67,0,3.65-1,3.65-4.67V7.82c0-3.91-.92-5.72-3.65-5.72V.73c1.37.13,2.73.19,4,.19A56.71,56.71,0,0,0,77.06,0Z"/><path class="cls-1" d="M94.95,44.87c0,3.62,1,4.67,3.65,4.67v1.37c-1.75-.06-5.59-.25-9.25-.25s-7.88.19-9.76.25V49.54c2.67,0,3.65-1,3.65-4.67V7.82c0-3.91-.92-5.72-3.65-5.72V.73c1.37.13,2.73.19,4,.19A56.71,56.71,0,0,0,94.95,0Z"/><path class="cls-1" d="M133.32,34.07c0,13.12-6.64,17.76-16.72,17.76S99.86,47.19,99.86,34.07s6.64-17.86,16.75-17.86S133.32,20.91,133.32,34.07Zm-21.29,0c0,11.63,2,16.46,4.58,16.46s4.54-4.83,4.54-16.46-1.94-16.56-4.54-16.56S112,22.4,112,34.07Z"/><path class="cls-1" d="M92.42,69.36c1.81,1.87,2.13,4.61,2.13,9.12V95.89c0,2.1.29,2.8,1,2.8a3.57,3.57,0,0,0,2-1l.64,1.11c-2.07,1.75-4.73,2.38-8.45,2.38-4.89,0-6.64-2.32-6.7-4.93a10.73,10.73,0,0,1-9.31,4.93c-5.21,0-8.2-3-8.2-7.47s2.54-7.31,8.26-9.18c5.08-1.81,9.06-3.11,9.06-6V72.73c0-2-.67-5.34-4.83-5.34a6.76,6.76,0,0,0-3.43,1.11c2.8,1,4.35,2.92,4.35,5.88s-2.48,5.47-6.26,5.47c-3.24,0-5.34-2.48-5.34-5.69,0-2.73,1.72-4.73,4-6,2.67-1.37,5.88-2.1,10.42-2.1S89.94,66.75,92.42,69.36ZM82.85,81.21a18.46,18.46,0,0,1-2.54,2.86,9.71,9.71,0,0,0-3.18,7.34c0,3.4,1.43,4.61,3.3,4.61a3,3,0,0,0,2.42-1.08Z"/><path class="cls-1" d="M133.32,82.42c0,14.78-7,19.29-15.16,19.29a12.74,12.74,0,0,1-6.07-1.24v5.4c0,4.23,2.1,5.34,5.59,5.34v1.37c-2.38-.06-7.15-.29-12-.29-3.5,0-7.21.22-9,.29v-1.37c2.67,0,3.65-1,3.65-4.7V74.16c0-3.91-.92-5.72-3.65-5.72V67.07c1.37.13,2.73.19,4,.19a59.4,59.4,0,0,0,11.31-.89V71c2-3.3,5.47-4.89,9.88-4.89C128.43,66.09,133.32,71.36,133.32,82.42Zm-12.17,1.53c0-11.54-2-14.46-4.35-14.46a4.7,4.7,0,0,0-4.7,4.67v25a4.42,4.42,0,0,0,2.29.54C119.18,99.74,121.15,94.46,121.15,83.94Z"/><path class="cls-1" d="M66.17,95.77a4.8,4.8,0,0,1-3.5,1.91c-1.46,0-2-.67-2-2.35V68.37h6.39v-1.3H60.71V54.53C58.38,57,54.57,59.18,49,59.73v7.34H44.06v1.3H49V90.43c0,4.51.35,7.18,2.22,9.06,1.49,1.49,3.85,2.22,6.71,2.22a10,10,0,0,0,9.25-5.15Z"/><circle class="cls-1" cx="106.23" cy="127.69" r="5.9"/></svg>
